{
    "asset" : {
        "generator" : "Khronos glTF Blender I/O v1.4.40",
        "version" : "2.0"
    },
    "scene" : 0,
    "scenes" : [
        {
            "name" : "Scene",
            "nodes" : [
                0,
                1
            ]
        }
    ],
    "nodes" : [
        {
            "mesh" : 0,
            "name" : "Suzanne",
            "rotation" : [
                -0.9999971985816956,
                0,
                0,
                -0.0023738560266792774
            ],
            "scale" : [
                0.2013797163963318,
                0.2013797163963318,
                0.2013797163963318
            ],
            "translation" : [
                0.10593781620264053,
                0.3017312288284302,
                0.08085429668426514
            ]
        },
        {
            "mesh" : 1,
            "name" : "Text",
            "rotation" : [
                -0.779244601726532,
                0,
                0,
                0.6267198920249939
            ],
            "scale" : [
                0.48162317276000977,
                0.48162323236465454,
                0.48162323236465454
            ],
            "translation" : [
                -0.025281645357608795,
                0.3335409164428711,
                -0.19873958826065063
            ]
        }
    ],
    "materials" : [
        {
            "doubleSided" : true,
            "name" : "Material.001",
            "pbrMetallicRoughness" : {
                "baseColorFactor" : [
                    0.8000000715255737,
                    0.002865451853722334,
                    0,
                    1
                ],
                "metallicFactor" : 0,
                "roughnessFactor" : 0.5
            }
        },
        {
            "doubleSided" : true,
            "name" : "Material.002",
            "pbrMetallicRoughness" : {
                "baseColorFactor" : [
                    0.0813441276550293,
                    0.11372591555118561,
                    0.8000000715255737,
                    1
                ],
                "metallicFactor" : 0.36507898569107056,
                "roughnessFactor" : 0.5
            }
        }
    ],
    "meshes" : [
        {
            "name" : "Suzanne",
            "primitives" : [
                {
                    "attributes" : {
                        "POSITION" : 0,
                        "NORMAL" : 1,
                        "TEXCOORD_0" : 2
                    },
                    "indices" : 3,
                    "material" : 0
                }
            ]
        },
        {
            "name" : "Text",
            "primitives" : [
                {
                    "attributes" : {
                        "POSITION" : 4,
                        "NORMAL" : 5,
                        "TEXCOORD_0" : 6
                    },
                    "indices" : 7,
                    "material" : 1
                }
            ]
        }
    ],
    "accessors" : [
        {
            "bufferView" : 0,
            "componentType" : 5126,
            "count" : 1966,
            "max" : [
                1.3671875,
                0.8515625,
                0.984375
            ],
            "min" : [
                -1.3671875,
                -0.8515625,
                -0.984375
            ],
            "type" : "VEC3"
        },
        {
            "bufferView" : 1,
            "componentType" : 5126,
            "count" : 1966,
            "type" : "VEC3"
        },
        {
            "bufferView" : 2,
            "componentType" : 5126,
            "count" : 1966,
            "type" : "VEC2"
        },
        {
            "bufferView" : 3,
            "componentType" : 5123,
            "count" : 2904,
            "type" : "SCALAR"
        },
        {
            "bufferView" : 4,
            "componentType" : 5126,
            "count" : 1566,
            "max" : [
                0.8507401347160339,
                0.15202002227306366,
                0.11999999731779099
            ],
            "min" : [
                0,
                -0.0019800004083663225,
                -0.11999999731779099
            ],
            "type" : "VEC3"
        },
        {
            "bufferView" : 5,
            "componentType" : 5126,
            "count" : 1566,
            "type" : "VEC3"
        },
        {
            "bufferView" : 6,
            "componentType" : 5126,
            "count" : 1566,
            "type" : "VEC2"
        },
        {
            "bufferView" : 7,
            "componentType" : 5123,
            "count" : 2880,
            "type" : "SCALAR"
        }
    ],
    "bufferViews" : [
        {
            "buffer" : 0,
            "byteLength" : 23592,
            "byteOffset" : 0
        },
        {
            "buffer" : 0,
            "byteLength" : 23592,
            "byteOffset" : 23592
        },
        {
            "buffer" : 0,
            "byteLength" : 15728,
            "byteOffset" : 47184
        },
        {
            "buffer" : 0,
            "byteLength" : 5808,
            "byteOffset" : 62912
        },
        {
            "buffer" : 0,
            "byteLength" : 18792,
            "byteOffset" : 68720
        },
        {
            "buffer" : 0,
            "byteLength" : 18792,
            "byteOffset" : 87512
        },
        {
            "buffer" : 0,
            "byteLength" : 12528,
            "byteOffset" : 106304
        },
        {
            "buffer" : 0,
            "byteLength" : 5760,
            "byteOffset" : 118832
        }
    ],
    "buffers" : [
        {
            "byteLength" : 124592,
            "uri" : "data:application/octet-stream;base64,"
        }
    ]
}
